<mxfile host="app.diagrams.net" agent="Mozilla/5.0 (Windows NT 10.0; Win64; x64) AppleWebKit/537.36 (KHTML, like Gecko) Chrome/131.0.0.0 Safari/537.36" version="26.0.6">
  <diagram name="第 1 页" id="BjXnmrzVbkFN-8aK5Bxm">
    <mxGraphModel dx="794" dy="420" grid="1" gridSize="10" guides="1" tooltips="1" connect="1" arrows="1" fold="1" page="1" pageScale="1" pageWidth="827" pageHeight="1169" math="0" shadow="0">
      <root>
        <mxCell id="0" />
        <mxCell id="1" parent="0" />
        <mxCell id="2DW1LLh49nirGwvhIOOl-8" style="edgeStyle=orthogonalEdgeStyle;rounded=0;orthogonalLoop=1;jettySize=auto;html=1;exitX=0.5;exitY=0;exitDx=0;exitDy=0;entryX=0.5;entryY=1;entryDx=0;entryDy=0;" edge="1" parent="1" source="2DW1LLh49nirGwvhIOOl-1" target="2DW1LLh49nirGwvhIOOl-2">
          <mxGeometry relative="1" as="geometry" />
        </mxCell>
        <mxCell id="2DW1LLh49nirGwvhIOOl-1" value="init" style="ellipse;whiteSpace=wrap;html=1;aspect=fixed;strokeColor=#1A1A1A;fillColor=#66B2FF;" vertex="1" parent="1">
          <mxGeometry x="180" y="400" width="30" height="30" as="geometry" />
        </mxCell>
        <mxCell id="2DW1LLh49nirGwvhIOOl-15" value="" style="edgeStyle=orthogonalEdgeStyle;rounded=0;orthogonalLoop=1;jettySize=auto;html=1;" edge="1" parent="1" source="2DW1LLh49nirGwvhIOOl-2" target="2DW1LLh49nirGwvhIOOl-14">
          <mxGeometry relative="1" as="geometry" />
        </mxCell>
        <mxCell id="2DW1LLh49nirGwvhIOOl-2" value="c1" style="ellipse;whiteSpace=wrap;html=1;aspect=fixed;fillColor=#66B2FF;rotation=-1;" vertex="1" parent="1">
          <mxGeometry x="180" y="340" width="30" height="30" as="geometry" />
        </mxCell>
        <mxCell id="2DW1LLh49nirGwvhIOOl-29" style="edgeStyle=orthogonalEdgeStyle;rounded=0;orthogonalLoop=1;jettySize=auto;html=1;entryX=0.5;entryY=1;entryDx=0;entryDy=0;" edge="1" parent="1" source="2DW1LLh49nirGwvhIOOl-10" target="2DW1LLh49nirGwvhIOOl-23">
          <mxGeometry relative="1" as="geometry" />
        </mxCell>
        <mxCell id="2DW1LLh49nirGwvhIOOl-30" style="edgeStyle=orthogonalEdgeStyle;rounded=0;orthogonalLoop=1;jettySize=auto;html=1;curved=1;exitX=1;exitY=0.5;exitDx=0;exitDy=0;" edge="1" parent="1" source="2DW1LLh49nirGwvhIOOl-1" target="2DW1LLh49nirGwvhIOOl-10">
          <mxGeometry relative="1" as="geometry">
            <mxPoint x="285" y="420" as="sourcePoint" />
          </mxGeometry>
        </mxCell>
        <mxCell id="2DW1LLh49nirGwvhIOOl-10" value="c3" style="ellipse;whiteSpace=wrap;html=1;aspect=fixed;fillColor=#FF66B3;" vertex="1" parent="1">
          <mxGeometry x="270" y="270" width="30" height="30" as="geometry" />
        </mxCell>
        <mxCell id="2DW1LLh49nirGwvhIOOl-12" value="c6" style="ellipse;whiteSpace=wrap;html=1;aspect=fixed;fillColor=#66B2FF;" vertex="1" parent="1">
          <mxGeometry x="180" y="50" width="30" height="30" as="geometry" />
        </mxCell>
        <mxCell id="2DW1LLh49nirGwvhIOOl-18" value="" style="edgeStyle=orthogonalEdgeStyle;rounded=0;orthogonalLoop=1;jettySize=auto;html=1;" edge="1" parent="1" source="2DW1LLh49nirGwvhIOOl-13" target="2DW1LLh49nirGwvhIOOl-12">
          <mxGeometry relative="1" as="geometry" />
        </mxCell>
        <mxCell id="2DW1LLh49nirGwvhIOOl-13" value="c4" style="ellipse;whiteSpace=wrap;html=1;aspect=fixed;fillColor=#66B2FF;" vertex="1" parent="1">
          <mxGeometry x="180" y="180" width="30" height="30" as="geometry" />
        </mxCell>
        <mxCell id="2DW1LLh49nirGwvhIOOl-16" value="" style="edgeStyle=orthogonalEdgeStyle;rounded=0;orthogonalLoop=1;jettySize=auto;html=1;" edge="1" parent="1" source="2DW1LLh49nirGwvhIOOl-14" target="2DW1LLh49nirGwvhIOOl-13">
          <mxGeometry relative="1" as="geometry" />
        </mxCell>
        <mxCell id="2DW1LLh49nirGwvhIOOl-14" value="c2" style="ellipse;whiteSpace=wrap;html=1;aspect=fixed;fillColor=#66B2FF;" vertex="1" parent="1">
          <mxGeometry x="180" y="280" width="30" height="30" as="geometry" />
        </mxCell>
        <mxCell id="2DW1LLh49nirGwvhIOOl-23" value="c3" style="ellipse;whiteSpace=wrap;html=1;aspect=fixed;fillColor=#FF66B3;" vertex="1" parent="1">
          <mxGeometry x="270" y="130" width="30" height="30" as="geometry" />
        </mxCell>
        <mxCell id="2DW1LLh49nirGwvhIOOl-28" value="" style="endArrow=classic;html=1;rounded=0;exitX=0.5;exitY=0;exitDx=0;exitDy=0;entryX=1;entryY=1;entryDx=0;entryDy=0;curved=1;" edge="1" parent="1" source="2DW1LLh49nirGwvhIOOl-10" target="2DW1LLh49nirGwvhIOOl-13">
          <mxGeometry width="50" height="50" relative="1" as="geometry">
            <mxPoint x="250" y="250" as="sourcePoint" />
            <mxPoint x="300" y="200" as="targetPoint" />
            <Array as="points">
              <mxPoint x="290" y="220" />
            </Array>
          </mxGeometry>
        </mxCell>
      </root>
    </mxGraphModel>
  </diagram>
</mxfile>
